<?xml version="1.0" encoding="utf-8"?>
<svg width="4px" height="16px" viewBox="0 0 4 16" version="1.1" xmlns:xlink="http://www.w3.org/1999/xlink" xmlns="http://www.w3.org/2000/svg">
  <defs>
    <path d="M2 4C3.1 4 4 3.1 4 2C4 0.9 3.1 0 2 0C0.9 0 0 0.9 0 2C0 3.1 0.9 4 2 4ZM2 6C0.9 6 0 6.9 0 8C0 9.1 0.9 10 2 10C3.1 10 4 9.1 4 8C4 6.9 3.1 6 2 6ZM2 12C0.9 12 0 12.9 0 14C0 15.1 0.9 16 2 16C3.1 16 4 15.1 4 14C4 12.9 3.1 12 2 12Z" id="path_1" />
    <clipPath id="mask_1">
      <use xlink:href="#path_1" />
    </clipPath>
  </defs>
  <g id="ic_more_vert_24px">
    <path d="M2 4C3.1 4 4 3.1 4 2C4 0.9 3.1 0 2 0C0.9 0 0 0.9 0 2C0 3.1 0.9 4 2 4ZM2 6C0.9 6 0 6.9 0 8C0 9.1 0.9 10 2 10C3.1 10 4 9.1 4 8C4 6.9 3.1 6 2 6ZM2 12C0.9 12 0 12.9 0 14C0 15.1 0.9 16 2 16C3.1 16 4 15.1 4 14C4 12.9 3.1 12 2 12Z" id="Shape" fill="none" stroke="none" />
    <g clip-path="url(#mask_1)">
      <g id="🎨-Color" transform="translate(-10 -4)">
        <path d="M0 0L24 0L24 24L0 24L0 0Z" id="Shape" fill="#9EA0A5" fill-rule="evenodd" stroke="none" />
      </g>
    </g>
  </g>
</svg>
