<?xml version="1.0" encoding="utf-8"?>
<svg width="36px" height="36px" viewBox="0 0 36 36" version="1.1" xmlns:xlink="http://www.w3.org/1999/xlink" xmlns="http://www.w3.org/2000/svg">
  <g id="flex">
    <path d="M18.1065 33.7263C26.6854 33.7263 33.7263 26.6854 33.7263 18.1065C33.7263 9.34353 26.714 2.27368 18.1065 2.27368C9.3146 2.27368 2.27368 9.3146 2.27368 18.1065C2.27368 26.714 9.34353 33.7263 18.1065 33.7263ZM18.1065 36C8.05887 36 0 27.9411 0 18.1065C0 8.05887 8.05887 0 18.1065 0C27.9411 0 36 8.05887 36 18.1065C36 27.9411 27.9411 36 18.1065 36Z" id="Combined-Shape" fill="#FFFFFF" stroke="none" />
    <path d="M17.427 13.2318L17.4277 13.2318Q17.7003 13.2318 17.9572 13.3231Q18.2141 13.4144 18.4257 13.5864L22.634 17.0086Q22.7716 17.1205 22.9336 17.1928Q23.0956 17.265 23.2709 17.2927Q23.4461 17.3203 23.6225 17.3013Q23.7989 17.2824 23.9642 17.2182L25.7 16.479C25.988 16.3628 26.4054 16.524 26.6318 16.7366C27.592 17.638 28.515 18.0027 29.1289 18.482C30.4861 19.5416 31.486 20.25 31.486 20.25C31.486 20.25 31.4686 19.8601 31.486 19.4401C31.846 10.718 25.2324 4.39017 17.8022 4.50144C10.3803 4.61568 4.38132 10.5662 4.50178 18.8354C4.51309 19.5319 4.6193 20.25 4.6193 20.25L6.50953 18.8354L8.80676 17.1802Q8.86435 17.1387 8.92743 17.1062Q8.99051 17.0737 9.05771 17.0508Q9.1249 17.0279 9.19473 17.0152Q9.26456 17.0025 9.33551 17.0002Q9.40645 16.9979 9.47695 17.0062Q9.54745 17.0144 9.61597 17.0329Q9.68449 17.0515 9.74952 17.0799Q9.81455 17.1083 9.87468 17.1461L10.7997 17.7265Q10.8762 17.7745 10.9639 17.7967Q11.0515 17.8189 11.1417 17.813Q11.2319 17.8072 11.3159 17.7739Q11.4 17.7406 11.4697 17.6831L16.4315 13.5894Q16.6416 13.416 16.8981 13.3239Q17.1545 13.2318 17.427 13.2318Z" id="Oval-3" fill="#FFFFFF" fill-rule="evenodd" stroke="none" />
    <path d="M16.6359 34.7904C18.8195 35.0437 20.6187 34.6644 21.2437 34.486C21.5288 34.4046 22.5941 34.144 22.8452 34.0596C23.6863 33.777 24.9699 33.1782 25.7013 32.7418C26.7957 32.0887 27.5685 31.4007 28.6388 30.4354C31.015 28.2924 32.625 24.3249 32.625 23.92C32.625 23.8214 28.7666 20.6948 26.9764 19.5225C26.7528 19.3761 26.5717 19.5299 26.3141 19.6011L26.336 19.5949C26.0512 19.6784 26.0257 20.1139 26.1511 20.3828C26.6215 21.3912 27.5686 22.3074 27.6195 22.4617C27.792 22.9849 27.5465 23.2804 27.3009 23.1231C27.0553 22.9658 21.5646 19.2672 21.5646 19.2672L18.2786 16.9952Q18.2439 16.9712 18.2063 16.9521Q18.1686 16.9331 18.1288 16.9193Q18.0889 16.9055 18.0475 16.8972Q18.0062 16.889 17.9641 16.8864Q17.922 16.8838 17.8799 16.887Q17.8378 16.8902 17.7966 16.899Q17.7553 16.9078 17.7157 16.9222Q17.676 16.9365 17.6386 16.9561Q17.6013 16.9757 17.5669 17.0002Q17.5326 17.0246 17.5018 17.0535Q17.4711 17.0824 17.4446 17.1152Q17.4181 17.148 17.3962 17.1841Q17.3744 17.2202 17.3577 17.259Q17.3409 17.2977 17.3296 17.3383Q17.3183 17.379 17.3126 17.4207Q17.3068 17.4625 17.3068 17.5047C17.2619 17.0807 17.3165 17.2999 17.3068 17.5066C17.3068 17.5066 17.1957 19.1166 17.1957 20.1676C17.1957 20.5941 17.1518 21.1118 16.6359 21.246C16.3774 21.3132 15.7234 21.3527 15.7234 21.3527L10.1724 20.9332Q10.1415 20.9309 10.1107 20.9332Q10.0798 20.9356 10.0496 20.9426Q10.0195 20.9495 9.99072 20.961Q9.96195 20.9724 9.93524 20.988Q9.90852 21.0037 9.88446 21.0232Q9.86041 21.0427 9.83957 21.0655Q9.81872 21.0884 9.80156 21.1142Q9.78441 21.14 9.77133 21.168Q9.75825 21.1961 9.74955 21.2258Q9.74085 21.2555 9.73672 21.2862Q9.7326 21.3169 9.73314 21.3478Q9.73369 21.3788 9.73889 21.4093Q9.74409 21.4398 9.75383 21.4692Q9.76357 21.4986 9.77763 21.5262Q9.79169 21.5537 9.80974 21.5789Q9.8278 21.604 9.84943 21.6262C8.45403 21.0077 8.64411 21.0913 9.85128 21.6281C9.85128 21.6281 17.1957 26.5849 17.1957 26.9884C17.1957 27.846 14.552 26.4718 12.4773 25.4639C10.0179 24.2691 7.60361 23.0178 6.65101 22.8053C6.4491 22.7603 6.1375 22.8835 5.9581 22.9865C4.87161 23.6105 3.35602 24.4842 3.37515 24.5407C4.0878 26.6437 5.97806 29.7235 8.8419 31.7745C9.987 32.5946 11.3079 33.3606 12.5939 33.8365C14.0645 34.3806 15.6064 34.7904 16.6359 34.7904Z" id="Oval-4" fill="#FFFFFF" fill-rule="evenodd" stroke="none" />
  </g>
</svg>
