<svg width="36" height="36" xmlns="http://www.w3.org/2000/svg">
  <ellipse style="fill:#f2f2f2" cx="17.984" cy="18.015" rx="17.984" ry="17.952"/>
  <g style="fill:#333" fill="#FFF">
    <path d="M18.107 33.726c8.578 0 15.62-7.04 15.62-15.62 0-8.762-7.013-15.832-15.62-15.832A15.772 15.772 0 0 0 2.274 18.107c0 8.607 7.07 15.62 15.833 15.62zm0 2.274C8.059 36 0 27.941 0 18.107A18.046 18.046 0 0 1 18.107 0C27.94 0 36 8.059 36 18.107 36 27.94 27.941 36 18.107 36Z" style="fill:#333" transform="matrix(.88567 0 0 .88567 2.026 2.026)"/>
    <path d="M17.427 13.232q.273 0 .53.091t.469.263l4.208 3.423q.138.112.3.184.162.072.337.1.175.027.351.008.177-.019.342-.083l1.736-.739c.288-.116.705.045.932.258.96.901 1.883 1.266 2.497 1.745a70.272 70.272 0 0 0 2.357 1.768s-.017-.39 0-.81c.36-8.722-6.254-15.05-13.684-14.939-7.422.115-13.42 6.065-13.3 14.334.011.697.117 1.415.117 1.415l1.89-1.415 2.298-1.655q.057-.041.12-.074.064-.032.13-.055.068-.023.138-.036.07-.013.14-.015.071-.002.142.006.07.008.139.027.068.019.134.047.065.028.125.066l.925.58q.076.049.164.07.087.023.178.017.09-.006.174-.04.084-.032.154-.09l4.961-4.094q.21-.173.467-.265.256-.092.529-.092z" fill-rule="evenodd" style="fill:#333" transform="matrix(.88567 0 0 .88567 2.026 2.026)"/>
    <path d="M16.636 34.79c2.184.254 3.983-.126 4.608-.304.285-.081 1.35-.342 1.601-.426.841-.283 2.125-.882 2.856-1.318 1.095-.653 1.868-1.341 2.938-2.307 2.376-2.143 3.986-6.11 3.986-6.515 0-.099-3.858-3.225-5.649-4.398-.223-.146-.404.008-.662.08l.022-.007c-.285.083-.31.519-.185.788.47 1.008 1.418 1.924 1.468 2.079.173.523-.073.818-.318.661-.246-.157-5.736-3.856-5.736-3.856l-3.286-2.272q-.035-.024-.073-.043-.037-.019-.077-.033-.04-.013-.082-.022-.04-.008-.083-.01-.042-.003-.084 0t-.083.012q-.042.009-.081.023-.04.015-.077.034-.038.02-.072.044-.034.025-.065.054-.03.028-.057.061-.027.033-.049.07-.022.035-.038.074-.017.039-.028.08-.012.04-.017.082-.006.042-.006.084c-.045-.424.01-.205 0 .002 0 0-.111 1.61-.111 2.66 0 .427-.044.945-.56 1.079-.259.067-.913.107-.913.107l-5.55-.42q-.032-.002-.062 0-.031.003-.061.01-.03.006-.06.018-.028.011-.055.027-.026.016-.05.035-.025.02-.045.042-.021.023-.038.05-.018.025-.03.053-.014.028-.022.058-.01.03-.013.06-.004.03-.004.062 0 .03.006.061.005.03.015.06.01.03.024.057.014.028.032.053.018.025.04.047c-1.396-.618-1.206-.535.001.002 0 0 7.345 4.957 7.345 5.36 0 .858-2.644-.516-4.719-1.524-2.46-1.195-4.873-2.446-5.826-2.659-.202-.045-.513.079-.693.181-1.086.624-2.602 1.498-2.583 1.555.713 2.103 2.603 5.183 5.467 7.234 1.145.82 2.466 1.586 3.752 2.062 1.47.544 3.012.953 4.042.953z" fill-rule="evenodd" style="fill:#333" transform="matrix(.88567 0 0 .88567 2.026 2.026)"/>
  </g>
</svg>
