<svg width="20" height="20" xmlns:xlink="http://www.w3.org/1999/xlink" xmlns="http://www.w3.org/2000/svg">
  <defs>
    <clipPath id="b9">
      <use xlink:href="#a9"/>
    </clipPath>
    <path d="m7.834 13.78 1.485 1.486L14.584 10 9.32 4.734 7.834 6.22l2.717 2.728H.367v2.106H10.55l-2.717 2.728ZM17.217.523H2.473A2.106 2.106 0 0 0 .367 2.628V6.84h2.106V2.628h14.744v14.744H2.473V13.16H.367v4.213c0 1.159.937 2.106 2.106 2.106h14.744a2.112 2.112 0 0 0 2.107-2.106V2.628A2.112 2.112 0 0 0 17.216.522Z" id="a9"/>
  </defs>
  <path d="m7.834 13.78 1.485 1.486L14.584 10 9.32 4.734 7.834 6.22l2.717 2.728H.367v2.106H10.55l-2.717 2.728ZM17.217.523H2.473A2.106 2.106 0 0 0 .367 2.628V6.84h2.106V2.628h14.744v14.744H2.473V13.16H.367v4.213c0 1.159.937 2.106 2.106 2.106h14.744a2.112 2.112 0 0 0 2.107-2.106V2.628A2.112 2.112 0 0 0 17.216.522Z" fill="none"/>
  <g clip-path="url(#b9)">
    <path d="M-2-2h24v24H-2V-2Z" fill="#FFF" fill-rule="evenodd"/>
  </g>
</svg>
