<svg width="20" height="20" xmlns:xlink="http://www.w3.org/1999/xlink" xmlns="http://www.w3.org/2000/svg">
  <defs>
    <clipPath id="b12">
      <use xlink:href="#a12"/>
    </clipPath>
    <path d="M16.9075 2.62789V17.3721H2.16327V2.62789H16.9075Zm0-2.106311H2.16327c-1.15848 0-2.106319.947841-2.106319 2.106311V17.3721c0 1.1585.947839 2.1063 2.106319 2.1063H16.9075c1.1585 0 2.1063-.9478 2.1063-2.1063V2.62789c0-1.15847-.9478-2.106311-2.1063-2.106311ZM11.7891 9.85256 8.62966 13.9283 6.3759 11.2006l-3.15948 4.0652H15.8543l-4.0652-5.41324Z" id="a12"/>
  </defs>
  <path d="M16.9075 2.62789V17.3721H2.16327V2.62789H16.9075Zm0-2.106311H2.16327c-1.15848 0-2.106319.947841-2.106319 2.106311V17.3721c0 1.1585.947839 2.1063 2.106319 2.1063H16.9075c1.1585 0 2.1063-.9478 2.1063-2.1063V2.62789c0-1.15847-.9478-2.106311-2.1063-2.106311ZM11.7891 9.85256 8.62966 13.9283 6.3759 11.2006l-3.15948 4.0652H15.8543l-4.0652-5.41324Z" fill="none"/>
  <g clip-path="url(#b12)">
    <path d="M-2-2h24v24H-2V-2Z" fill="currentColor" fill-rule="evenodd"/>
  </g>
</svg>
