<?xml version="1.0" encoding="utf-8"?>
<svg width="20px" height="20px" viewBox="0 0 20 20" version="1.1" xmlns:xlink="http://www.w3.org/1999/xlink" xmlns="http://www.w3.org/2000/svg">
  <defs>
    <path d="M16.9075 2.62789L16.9075 17.3721L2.16327 17.3721L2.16327 2.62789L16.9075 2.62789L16.9075 2.62789ZM16.9075 0.521579L2.16327 0.521579C1.00479 0.521579 0.056951 1.46942 0.056951 2.62789L0.056951 17.3721C0.056951 18.5306 1.00479 19.4784 2.16327 19.4784L16.9075 19.4784C18.066 19.4784 19.0138 18.5306 19.0138 17.3721L19.0138 2.62789C19.0138 1.46942 18.066 0.521579 16.9075 0.521579ZM11.7891 9.85256L8.62966 13.9283L6.3759 11.2006L3.21642 15.2658L15.8543 15.2658L11.7891 9.85256Z" id="path_12" />
    <clipPath id="mask_12">
      <use xlink:href="#path_12" />
    </clipPath>
  </defs>
  <g id="iconsicoutline-dashboard-24px">
    <path d="M16.9075 2.62789L16.9075 17.3721L2.16327 17.3721L2.16327 2.62789L16.9075 2.62789L16.9075 2.62789ZM16.9075 0.521579L2.16327 0.521579C1.00479 0.521579 0.056951 1.46942 0.056951 2.62789L0.056951 17.3721C0.056951 18.5306 1.00479 19.4784 2.16327 19.4784L16.9075 19.4784C18.066 19.4784 19.0138 18.5306 19.0138 17.3721L19.0138 2.62789C19.0138 1.46942 18.066 0.521579 16.9075 0.521579ZM11.7891 9.85256L8.62966 13.9283L6.3759 11.2006L3.21642 15.2658L15.8543 15.2658L11.7891 9.85256Z" id="iconsicoutline-photo-24px" fill="none" stroke="none" />
    <g clip-path="url(#mask_12)">
      <g id="🎨-color" transform="translate(-2 -2)">
        <path d="M0 0L24 0L24 24L0 24L0 0Z" id="BG" fill="#66788A" fill-rule="evenodd" stroke="none" />
      </g>
    </g>
  </g>
</svg>
