<svg width="20" height="20" xmlns:xlink="http://www.w3.org/1999/xlink" xmlns="http://www.w3.org/2000/svg">
  <defs>
    <clipPath id="b11">
      <use xlink:href="#a11"/>
    </clipPath>
    <path d="M17.6509 2.62789v2.10632h-4.2126V2.62789h4.2126Zm-10.5316 0v6.31895H2.90667V2.62789H7.1193Zm10.5316 8.42531v6.3189h-4.2126v-6.3189h4.2126ZM7.1193 15.2658v2.1063H2.90667v-2.1063H7.1193ZM19.7572.521579h-8.4253V6.84053h8.4253V.521579Zm-10.53158 0H.800356V11.0532H9.22562V.521579ZM19.7572 8.94684h-8.4253V19.4784h8.4253V8.94684ZM9.22562 13.1595H.800356v6.3189H9.22562v-6.3189Z" id="a11"/>
  </defs>
  <path d="M17.6509 2.62789v2.10632h-4.2126V2.62789h4.2126Zm-10.5316 0v6.31895H2.90667V2.62789H7.1193Zm10.5316 8.42531v6.3189h-4.2126v-6.3189h4.2126ZM7.1193 15.2658v2.1063H2.90667v-2.1063H7.1193ZM19.7572.521579h-8.4253V6.84053h8.4253V.521579Zm-10.53158 0H.800356V11.0532H9.22562V.521579ZM19.7572 8.94684h-8.4253V19.4784h8.4253V8.94684ZM9.22562 13.1595H.800356v6.3189H9.22562v-6.3189Z" fill="none"/>
  <g clip-path="url(#b11)">
    <path d="M-2-2h24v24H-2V-2Z" fill="currentColor" fill-rule="evenodd"/>
  </g>
</svg>
