<svg xmlns:xlink="http://www.w3.org/1999/xlink" xmlns="http://www.w3.org/2000/svg" viewBox="0 0 24 24">
  <defs>
    <clipPath id="b11">
      <use xlink:href="#a11" width="100%" height="100%"/>
    </clipPath>
    <path d="M17.6509 2.62789v2.10632h-4.2126V2.62789Zm-10.5316 0v6.31895H2.90667V2.62789Zm10.5316 8.42531v6.3189h-4.2126v-6.3189ZM7.1193 15.2658v2.1063H2.90667v-2.1063ZM19.7572.521579h-8.4253V6.84053h8.4253zm-10.53158 0H.800356V11.0532H9.22562ZM19.7572 8.94684h-8.4253V19.4784h8.4253zM9.22562 13.1595H.800356v6.3189H9.22562Z" id="a11"/>
  </defs>
  <path d="M17.6509 2.62789v2.10632h-4.2126V2.62789Zm-10.5316 0v6.31895H2.90667V2.62789Zm10.5316 8.42531v6.3189h-4.2126v-6.3189ZM7.1193 15.2658v2.1063H2.90667v-2.1063ZM19.7572.521579h-8.4253V6.84053h8.4253zm-10.53158 0H.800356V11.0532H9.22562ZM19.7572 8.94684h-8.4253V19.4784h8.4253zM9.22562 13.1595H.800356v6.3189H9.22562Z" fill="none"/>
  <g clip-path="url(#b11)" transform="matrix(1.04656 0 0 1.04656 1.2185151 1.6147168)">
    <path d="M-2-2h24v24H-2Z" fill="currentColor" fill-rule="evenodd"/>
  </g>
</svg>
