<svg xmlns:xlink="http://www.w3.org/1999/xlink" xmlns="http://www.w3.org/2000/svg" viewBox="0 0 24 24">
  <defs>
    <clipPath id="b">
      <use xlink:href="#a" width="100%" height="100%"/>
    </clipPath>
    <path d="M7.1134 8.6675c-2.22968 0-6.669997 1.11484-6.669997 3.335V13.67H13.7834v-1.6675c0-2.22016-4.44031-3.335-6.67-3.335zm-4.44031 3.0968c.8004-.5527 2.7347-1.1911 4.44031-1.1911 1.70562 0 3.6399.6384 4.4403 1.1911zM7.1134 7c1.83902 0 3.335-1.49599 3.335-3.335S8.95242.33 7.1134.33c-1.83901 0-3.335 1.49599-3.335 3.335S5.27439 7 7.1134 7zm0-4.76429c.79087 0 1.42929.63842 1.42929 1.42929S7.90427 5.09429 7.1134 5.09429 5.68412 4.45587 5.68412 3.665s.63841-1.42929 1.42928-1.42929zm6.7081 6.48896c1.1053.8004 1.8676 1.86763 1.8676 3.27783V13.67h3.8114v-1.6675c0-1.9248-3.335-3.02056-5.679-3.27783zM12.8305 7c1.8391 0 3.335-1.49599 3.335-3.335S14.6696.33 12.8305.33c-.5145 0-.9909.123871-1.4292.3335.6003.84804.9528 1.88666.9528 3.0015s-.3525 2.15346-.9528 3.0015c.4383.20963.9147.3335 1.4292.3335Z" id="a"/>
  </defs>
  <path d="M8.9659262 13.775554C6.6373215 13.775554 2 14.939856 2 17.258518V19h13.931856v-1.741482c0-2.318662-4.637314-3.482964-6.9659298-3.482964zM4.328612 17.00975c.8359115-.577222 2.856031-1.243946 4.6373142-1.243946 1.7812938 0 3.8013918.666724 4.6373028 1.243946zm4.6373142-4.975678c1.9206118 0 3.4829648-1.562363 3.4829648-3.4829651 0-1.9206018-1.562353-3.4829647-3.4829648-3.4829647-1.9206017 0-3.4829647 1.5623629-3.4829647 3.4829647 0 1.9206021 1.562363 3.4829651 3.4829647 3.4829651zm0-4.9756688c.8259588 0 1.4927038.6667449 1.4927038 1.4927037 0 .8259582-.666745 1.4927031-1.4927038 1.4927031-.8259587 0-1.4926931-.6667449-1.4926931-1.4927031 0-.8259588.6667344-1.4927037 1.4926931-1.4927037zM15.971646 13.83526c1.154339.835912 1.95046 1.950492 1.95046 3.423258V19h3.980501v-1.741482c0-2.010198-3.482964-3.154573-5.930961-3.423258zm-1.034969-1.801188c1.920697 0 3.482966-1.562363 3.482966-3.4829651 0-1.9206018-1.562269-3.4829647-3.482966-3.4829647-.537326 0-1.034862.1293667-1.492609.3482964.626934.8856652.995073 1.9703659.995073 3.1346683 0 1.1643021-.368139 2.2490031-.995073 3.1346681.457747.218931.955283.348297 1.492609.348297z" fill="none" style="stroke-width:1.04437"/>
  <g clip-path="url(#b)" transform="matrix(1.04437 0 0 1.04437 1.5369244 4.723501)">
    <path d="M-2-5h24v24H-2Z" fill="currentColor" fill-rule="evenodd"/>
  </g>
</svg>
