<svg width="20" height="14" xmlns:xlink="http://www.w3.org/1999/xlink" xmlns="http://www.w3.org/2000/svg">
  <defs>
    <clipPath id="b14">
      <use xlink:href="#a14"/>
    </clipPath>
    <path d="M7.1134 8.6675c-2.22968 0-6.669997 1.11484-6.669997 3.335V13.67H13.7834v-1.6675c0-2.22016-4.44031-3.335-6.67-3.335Zm-4.44031 3.0968c.8004-.5527 2.7347-1.1911 4.44031-1.1911 1.70562 0 3.6399.6384 4.4403 1.1911H2.67309ZM7.1134 7c1.83902 0 3.335-1.49599 3.335-3.335S8.95242.33 7.1134.33c-1.83901 0-3.335 1.49599-3.335 3.335S5.27439 7 7.1134 7Zm0-4.76429c.79087 0 1.42929.63842 1.42929 1.42929S7.90427 5.09429 7.1134 5.09429 5.68412 4.45587 5.68412 3.665s.63841-1.42929 1.42928-1.42929Zm6.7081 6.48896c1.1053.8004 1.8676 1.86763 1.8676 3.27783V13.67h3.8114v-1.6675c0-1.9248-3.335-3.02056-5.679-3.27783ZM12.8305 7c1.8391 0 3.335-1.49599 3.335-3.335S14.6696.33 12.8305.33c-.5145 0-.9909.123871-1.4292.3335.6003.84804.9528 1.88666.9528 3.0015s-.3525 2.15346-.9528 3.0015c.4383.20963.9147.3335 1.4292.3335Z" id="a14"/>
  </defs>
  <path d="M7.1134 8.6675c-2.22968 0-6.669997 1.11484-6.669997 3.335V13.67H13.7834v-1.6675c0-2.22016-4.44031-3.335-6.67-3.335Zm-4.44031 3.0968c.8004-.5527 2.7347-1.1911 4.44031-1.1911 1.70562 0 3.6399.6384 4.4403 1.1911H2.67309ZM7.1134 7c1.83902 0 3.335-1.49599 3.335-3.335S8.95242.33 7.1134.33c-1.83901 0-3.335 1.49599-3.335 3.335S5.27439 7 7.1134 7Zm0-4.76429c.79087 0 1.42929.63842 1.42929 1.42929S7.90427 5.09429 7.1134 5.09429 5.68412 4.45587 5.68412 3.665s.63841-1.42929 1.42928-1.42929Zm6.7081 6.48896c1.1053.8004 1.8676 1.86763 1.8676 3.27783V13.67h3.8114v-1.6675c0-1.9248-3.335-3.02056-5.679-3.27783ZM12.8305 7c1.8391 0 3.335-1.49599 3.335-3.335S14.6696.33 12.8305.33c-.5145 0-.9909.123871-1.4292.3335.6003.84804.9528 1.88666.9528 3.0015s-.3525 2.15346-.9528 3.0015c.4383.20963.9147.3335 1.4292.3335Z" fill="none"/>
  <g clip-path="url(#b14)">
    <path d="M-2-5h24v24H-2V-5Z" fill="currentColor" fill-rule="evenodd"/>
  </g>
</svg>
