<?xml version="1.0" standalone="no"?>
<!DOCTYPE svg PUBLIC "-//W3C//DTD SVG 20010904//EN"
 "http://www.w3.org/TR/2001/REC-SVG-20010904/DTD/svg10.dtd">
<svg version="1.0" xmlns="http://www.w3.org/2000/svg"
 width="700.000000pt" height="700.000000pt" viewBox="0 0 700.000000 700.000000"
 preserveAspectRatio="xMidYMid meet">
<metadata>
Created by potrace 1.14, written by Peter Selinger 2001-2017
</metadata>
<g transform="translate(0.000000,700.000000) scale(0.100000,-0.100000)"
fill="#000000" stroke="none">
<path d="M3309 6600 c-766 -53 -1469 -370 -2004 -905 -808 -807 -1108 -1999
-778 -3095 140 -466 413 -920 763 -1270 488 -489 1071 -783 1770 -892 126 -19
184 -22 445 -23 323 0 418 9 655 62 735 163 1364 568 1819 1172 304 405 502
877 583 1396 19 121 22 181 23 440 0 337 -15 480 -80 745 -210 853 -748 1564
-1506 1988 -508 285 -1114 421 -1690 382z m512 -405 c585 -68 1119 -322 1543
-735 160 -156 263 -278 376 -447 183 -274 320 -593 395 -918 77 -333 85 -748
20 -1100 -31 -168 -122 -476 -145 -490 -5 -3 -43 25 -87 62 -196 167 -663 528
-819 634 -78 53 -104 58 -161 34 -47 -20 -53 -29 -53 -84 0 -66 59 -165 198
-334 47 -57 65 -87 69 -116 6 -45 -10 -81 -37 -81 -19 0 -797 519 -1309 874
-157 108 -295 199 -308 202 -39 10 -94 -17 -114 -56 -15 -29 -19 -78 -28 -311
-12 -362 -16 -371 -167 -391 -63 -8 -161 -4 -575 27 l-499 38 -25 -23 c-27
-25 -31 -50 -15 -80 5 -10 94 -76 197 -146 464 -316 946 -664 1036 -748 44
-41 48 -72 12 -88 -21 -9 -41 -8 -97 5 -133 32 -224 73 -916 411 -655 319
-751 358 -828 338 -24 -6 -139 -68 -256 -136 l-213 -125 -24 52 c-41 92 -119
338 -145 466 -90 427 -72 913 49 1327 308 1052 1202 1807 2295 1939 148 18
478 18 631 0z"/>
<path d="M3305 5824 c-359 -41 -596 -108 -859 -242 -691 -352 -1140 -1007
-1258 -1837 -15 -105 -17 -568 -2 -602 9 -21 16 -16 149 84 312 234 598 435
632 445 55 15 91 3 204 -67 123 -77 147 -80 211 -32 24 18 228 185 453 372
226 186 430 347 455 359 61 27 150 27 212 -1 26 -12 217 -160 425 -329 208
-170 394 -316 413 -326 22 -12 56 -18 95 -18 52 0 81 10 215 67 181 77 234 87
291 51 20 -13 71 -51 112 -84 41 -34 128 -95 194 -135 65 -40 219 -149 343
-242 l225 -170 3 159 c6 294 -29 576 -102 830 -269 936 -1057 1611 -1998 1713
-89 10 -342 13 -413 5z"/>
</g>
</svg>
